<svg xmlns="http://www.w3.org/2000/svg" viewBox="0 0 800.15 800.15"><defs><style>.cls-1{fill:#344358;}.cls-2{fill:#fefefe;}</style></defs><title>ai</title><g id="Layer_2" data-name="Layer 2"><g id="Layer_1-2" data-name="Layer 1"><path class="cls-1" d="M400.07,800.07q-198.19,0-396.4.08c-3,0-3.67-.68-3.67-3.68Q.12,400.08,0,3.67C0,.68.68,0,3.67,0q396.41.12,792.8,0c3,0,3.68.68,3.68,3.67q-.12,396.41,0,792.8c0,3-.68,3.68-3.68,3.68Q598.28,800,400.07,800.07Z"/><path class="cls-2" d="M318.75,346.32c-7.85,14.8-15.35,28.9-22.82,43q-50.33,95-100.66,190.07c-15.87,29.89-54.17,37-78.94,14.81-17.63-15.78-22.13-40.62-10.87-62Q144.58,457.94,184,383.8q44.7-84.45,89.45-168.86c15.25-28.69,50.31-37,75.71-18.12C356,201.93,361,208.58,365,216.12Q414.54,310,464.24,403.74q34,64.31,68,128.64c12.73,24.2,4.81,53-18.12,67.19-25.14,15.52-57.47,6.6-71.66-20-15.52-29-30.86-58.15-46.26-87.23L320.86,350C320.31,349,319.68,347.94,318.75,346.32Z"/><path class="cls-2" d="M568.05,396.63q0-79.39,0-158.79c0-26.5,19.2-47.71,45.5-50.77,28.6-3.32,55,19.43,56,48.23,0,.53,0,1.07,0,1.6,0,106.65.16,213.31-.12,320-.06,20.9-10.45,36.54-29.35,45.44-33.5,15.79-71.88-8.61-72-45.69C567.89,503.28,568.06,450,568.05,396.63Z"/></g></g></svg>